<svg width="111" height="111" viewBox="0 0 111 111" fill="none" xmlns="http://www.w3.org/2000/svg">
<path fill-rule="evenodd" clip-rule="evenodd" d="M11.3696 25.033C11.3696 32.5083 17.4295 38.5682 24.9047 38.5682C32.38 38.5682 38.4399 32.5083 38.4399 25.033C38.4399 17.5578 32.38 11.4979 24.9047 11.4979C17.4295 11.4979 11.3696 17.5578 11.3696 25.033Z" fill="#00B700" fill-opacity="0.5"/>
<path fill-rule="evenodd" clip-rule="evenodd" d="M41.9048 33.9121C41.9048 41.3874 47.9647 47.4473 55.44 47.4473C62.9153 47.4473 68.9752 41.3874 68.9752 33.9121C68.9752 26.4368 62.9153 20.377 55.44 20.377C47.9647 20.377 41.9048 26.4368 41.9048 33.9121Z" fill="#00B700" fill-opacity="0.7"/>
<path fill-rule="evenodd" clip-rule="evenodd" d="M41.9048 64.4474C41.9048 71.9226 47.9647 77.9825 55.44 77.9825C62.9153 77.9825 68.9752 71.9226 68.9752 64.4474C68.9752 56.9721 62.9153 50.9122 55.44 50.9122C47.9647 50.9122 41.9048 56.9721 41.9048 64.4474Z" fill="#00B700" fill-opacity="0.9"/>
<path fill-rule="evenodd" clip-rule="evenodd" d="M72.4402 25.033C72.4402 32.5083 78.5001 38.5682 85.9753 38.5682C93.4506 38.5682 99.5105 32.5083 99.5105 25.033C99.5105 17.5578 93.4506 11.4979 85.9753 11.4979C78.5001 11.4979 72.4402 17.5578 72.4402 25.033Z" fill="#00B700" fill-opacity="0.6"/>
<path fill-rule="evenodd" clip-rule="evenodd" d="M72.4402 55.5684C72.4402 63.0436 78.5001 69.1035 85.9753 69.1035C93.4506 69.1035 99.5105 63.0436 99.5105 55.5684C99.5105 48.0931 93.4506 42.0332 85.9753 42.0332C78.5001 42.0332 72.4402 48.0931 72.4402 55.5684Z" fill="#00B700" fill-opacity="0.7"/>
<path fill-rule="evenodd" clip-rule="evenodd" d="M72.4402 86.1036C72.4402 93.5789 78.5001 99.6388 85.9753 99.6388C93.4506 99.6388 99.5105 93.5789 99.5105 86.1036C99.5105 78.6284 93.4506 72.5685 85.9753 72.5685C78.5001 72.5685 72.4402 78.6284 72.4402 86.1036Z" fill="#00B700" fill-opacity="0.9"/>
<path fill-rule="evenodd" clip-rule="evenodd" d="M11.3696 55.5684C11.3696 63.0436 17.4295 69.1035 24.9047 69.1035C32.38 69.1035 38.4399 63.0436 38.4399 55.5684C38.4399 48.0931 32.38 42.0332 24.9047 42.0332C17.4295 42.0332 11.3696 48.0931 11.3696 55.5684Z" fill="#00B700" fill-opacity="0.8"/>
<path fill-rule="evenodd" clip-rule="evenodd" d="M11.3696 86.1036C11.3696 93.5789 17.4295 99.6388 24.9047 99.6388C32.38 99.6388 38.4399 93.5789 38.4399 86.1036C38.4399 78.6284 32.38 72.5685 24.9047 72.5685C17.4295 72.5685 11.3696 78.6284 11.3696 86.1036Z" fill="#00B700" fill-opacity="0.5"/>
</svg>
